<?xml version="1.0" standalone="no"?>
<!DOCTYPE svg PUBLIC "-//W3C//DTD SVG 20010904//EN"
 "http://www.w3.org/TR/2001/REC-SVG-20010904/DTD/svg10.dtd">
<svg version="1.0" xmlns="http://www.w3.org/2000/svg"
 width="266.000000pt" height="183.000000pt" viewBox="0 0 266.000000 183.000000"
 preserveAspectRatio="xMidYMid meet">

<g transform="translate(0.000000,183.000000) scale(0.100000,-0.100000)"
fill="#000000" stroke="none">
<path d="M228 1603 c-39 -45 -27 -104 24 -122 75 -26 132 64 75 117 -28 27
-78 29 -99 5z"/>
<path d="M1692 1597 c-36 -38 -28 -88 18 -112 36 -19 83 -4 99 31 16 35 14 47
-10 78 -27 34 -77 36 -107 3z"/>
<path d="M1450 1187 c0 -257 -4 -447 -11 -483 -17 -98 -79 -212 -155 -288
-219 -219 -569 -219 -788 0 -76 76 -138 190 -155 288 -6 34 -11 188 -11 353
l0 293 -56 0 -56 0 5 -302 c5 -349 11 -391 82 -536 108 -217 341 -362 585
-362 244 0 477 145 585 362 72 147 75 170 75 666 l0 432 -50 0 -50 0 0 -423z"/>
<path d="M664 1351 c-23 -10 -53 -32 -68 -47 l-26 -29 0 38 0 37 -50 0 -50 0
0 -280 0 -280 50 0 50 0 0 163 c0 172 6 210 42 263 28 41 56 54 114 54 103 0
114 -27 114 -285 l0 -195 55 0 55 0 0 180 c0 198 8 234 66 279 38 30 123 29
159 -1 37 -32 44 -79 45 -280 l0 -178 51 0 50 0 -3 223 c-3 215 -4 223 -28
266 -63 111 -229 124 -331 25 l-35 -34 -23 31 c-47 64 -156 87 -237 50z"/>
<path d="M2097 1356 c-100 -36 -167 -115 -187 -219 -27 -146 33 -273 160 -338
61 -32 174 -33 242 -2 191 86 227 369 65 509 -71 60 -191 81 -280 50z m171
-100 c31 -16 74 -61 91 -94 16 -30 17 -129 2 -174 -16 -47 -80 -105 -126 -114
-125 -23 -225 63 -225 194 0 121 71 202 178 202 29 0 65 -6 80 -14z"/>
<path d="M1690 1070 l0 -280 55 0 55 0 0 280 0 280 -55 0 -55 0 0 -280z"/>
</g>
</svg>
